<svg width="1512" height="982" viewBox="0 0 1512 982" fill="none" xmlns="http://www.w3.org/2000/svg">
<rect width="1512" height="982" fill="#F5F5F5"/>
<rect width="1512" height="982" fill="white"/>
<circle cx="756.5" cy="137" r="45" fill="url(#paint0_linear_0_1)"/>
<rect x="685" y="193" width="143" height="100" rx="50" fill="url(#paint1_linear_0_1)"/>
<circle cx="539.5" cy="338" r="45" fill="url(#paint2_linear_0_1)"/>
<rect x="468" y="394" width="143" height="100" rx="50" fill="url(#paint3_linear_0_1)"/>
<circle cx="756.5" cy="539" r="45" fill="url(#paint4_linear_0_1)"/>
<rect x="685" y="595" width="143" height="100" rx="50" fill="url(#paint5_linear_0_1)"/>
<rect x="642.5" y="338.5" width="664" height="131" rx="52.5" fill="url(#paint6_linear_0_1)" stroke="url(#paint7_linear_0_1)"/>
<g filter="url(#filter0_d_0_1)">
<path d="M708.01 390.66C708.127 389.84 708.186 388.639 708.186 387.057C708.186 385.475 707.878 384.039 707.263 382.75C706.647 381.432 705.812 380.406 704.758 379.674C702.912 378.414 700.129 377.784 696.408 377.784C692.717 377.784 689.45 378.458 686.608 379.806C683.796 381.124 681.438 382.984 679.533 385.387C675.695 390.221 673.776 396.798 673.776 405.118C673.776 412.999 675.725 419.283 679.621 423.971C683.664 428.863 689.128 431.31 696.013 431.31C702.78 431.31 708.054 429.83 711.833 426.871C712.976 425.992 714.016 425.04 714.953 424.015C715.832 424.278 716.55 425.055 717.106 426.344C717.282 426.783 717.37 427.369 717.37 428.102C717.37 428.805 716.843 429.859 715.788 431.266C714.763 432.643 713.254 433.976 711.262 435.265C706.516 438.37 700.832 439.923 694.211 439.923C684.719 439.923 677.16 437.037 671.535 431.266C665.969 425.611 663.186 418.038 663.186 408.546C663.186 402.745 664.108 397.516 665.954 392.857C667.8 388.199 670.319 384.244 673.513 380.992C676.706 377.711 680.427 375.191 684.675 373.434C688.952 371.676 693.098 370.797 697.111 370.797C701.154 370.797 704.392 371.134 706.823 371.808C709.255 372.481 711.276 373.404 712.888 374.576C716.11 376.979 717.722 380.172 717.722 384.156C717.722 387.203 716.594 389.356 714.338 390.616C713.576 391.056 712.756 391.275 711.877 391.275C710.061 391.275 708.771 391.07 708.01 390.66ZM735.739 431.178C732.956 428.395 730.773 425.04 729.191 421.114C727.639 417.159 726.862 412.984 726.862 408.59C726.862 404.166 727.302 400.27 728.181 396.9C729.06 393.531 730.275 390.484 731.828 387.76C733.381 385.006 735.227 382.574 737.365 380.465C739.504 378.355 741.833 376.583 744.353 375.147C749.45 372.247 754.973 370.797 760.92 370.797C769.943 370.797 777.297 373.668 782.98 379.41C788.928 385.387 791.901 393.253 791.901 403.009C791.901 410.362 790.246 416.969 786.936 422.828C783.918 428.16 779.758 432.35 774.455 435.396C769.357 438.355 764.216 439.835 759.03 439.835C753.874 439.835 749.392 439.088 745.583 437.594C741.804 436.07 738.522 433.932 735.739 431.178ZM743.122 385.211C741.394 387.643 740.119 390.587 739.299 394.044C738.479 397.501 738.068 401.222 738.068 405.206C738.068 409.161 738.449 412.794 739.211 416.104C739.973 419.386 741.188 422.271 742.858 424.762C746.491 430.182 751.882 432.892 759.03 432.892C766.237 432.892 771.701 430.533 775.422 425.816C778.996 421.217 780.783 414.669 780.783 406.173C780.783 393.136 776.916 384.391 769.182 379.938C766.428 378.385 763.161 377.608 759.382 377.608C755.603 377.608 752.38 378.268 749.714 379.586C747.048 380.904 744.851 382.779 743.122 385.211ZM829.167 439.439L816.643 438.956H805.305C803.781 438.956 802.507 438.707 801.481 438.209C800.456 437.682 799.943 437.037 799.943 436.275C799.943 434.869 800.163 433.888 800.603 433.331C801.657 433.624 802.727 433.771 803.811 433.771C804.895 433.771 805.803 433.697 806.535 433.551C807.297 433.404 807.971 433.097 808.557 432.628C809.904 431.573 810.578 429.742 810.578 427.135V382.354C810.578 379.63 808.879 377.931 805.48 377.257C803.371 376.817 801.994 376.349 801.35 375.851C800.734 375.323 800.427 374.752 800.427 374.137C800.427 372.789 800.661 371.881 801.13 371.412C801.657 371.559 802.141 371.632 802.58 371.632C802.58 371.632 807.019 371.632 815.896 371.632C816.569 371.632 817.463 371.603 818.576 371.544C818.576 371.544 819.821 371.471 822.312 371.324C825.974 371.148 829.724 371.061 833.562 371.061C837.429 371.061 841.179 371.529 844.812 372.467C848.444 373.375 851.579 374.62 854.216 376.202C856.882 377.784 859.094 379.63 860.852 381.739C862.639 383.819 864.074 386.031 865.158 388.375C867.092 392.682 868.059 397.516 868.059 402.877C868.059 412.604 865.539 420.689 860.5 427.135C856.545 432.203 850.729 435.777 843.054 437.857C839.069 438.912 834.44 439.439 829.167 439.439ZM820.949 428.409C820.949 430.606 821.638 432.027 823.015 432.672C824.187 433.199 826.984 433.463 831.408 433.463C835.861 433.463 839.816 432.73 843.273 431.266C846.73 429.801 849.484 427.823 851.535 425.333C855.227 420.851 857.072 414.537 857.072 406.393C857.072 392.418 852.136 383.292 842.263 379.015C838.688 377.462 834.279 376.686 829.035 376.686C825.549 376.686 823.425 377.037 822.663 377.74C821.901 378.414 821.418 379.264 821.213 380.289C821.037 381.285 820.949 382.633 820.949 384.332V428.409ZM925.671 419.444C926.462 418.771 927.297 418.434 928.176 418.434C929.523 418.434 930.3 418.624 930.505 419.005C931.647 421.29 932.219 425.069 932.219 430.343C932.219 434.005 931.809 436.656 930.988 438.297C930.725 438.766 930.446 439 930.153 439H881.638C878.151 439 876.408 437.96 876.408 435.88C876.408 434.767 876.643 433.917 877.111 433.331C878.107 433.624 879.074 433.771 880.012 433.771C880.949 433.771 881.755 433.697 882.429 433.551C883.103 433.404 883.732 433.097 884.318 432.628C885.725 431.544 886.428 429.713 886.428 427.135V382.618C886.428 380.069 885.402 378.443 883.352 377.74C882.766 377.535 882.15 377.359 881.506 377.213C880.891 377.037 880.29 376.876 879.704 376.729C879.147 376.554 878.649 376.363 878.21 376.158C877.214 375.631 876.716 374.913 876.716 374.005C876.716 372.804 876.95 371.939 877.419 371.412C877.946 371.559 878.474 371.632 879.001 371.632H923.957C926.652 371.632 928.337 371.881 929.011 372.379C930.241 373.258 930.856 375.191 930.856 378.18C930.856 381.051 930.607 383.395 930.109 385.211C929.641 387.027 929.304 388.111 929.099 388.463C928.806 388.99 928.234 389.254 927.385 389.254C926.154 389.254 925.305 389.107 924.836 388.814C924.396 388.492 924.162 388.258 924.133 388.111C923.752 383.922 923.093 381.256 922.155 380.113C921.218 378.941 920.104 378.15 918.815 377.74C917.556 377.301 915.9 377.081 913.85 377.081H904.05C900.944 377.081 899.04 377.389 898.337 378.004C897.663 378.619 897.238 379.337 897.062 380.157C896.887 380.948 896.799 381.974 896.799 383.233V401.954L899.392 401.998C905.866 401.998 911.872 401.427 917.409 400.284C917.819 400.489 918.186 401.075 918.508 402.042C918.83 402.979 918.991 403.917 918.991 404.854C918.991 406.437 918.728 407.813 918.2 408.985C916.267 409.161 914.04 409.249 911.521 409.249C909.001 409.249 904.094 408.839 896.799 408.019V427.838C896.799 430.035 897.385 431.515 898.557 432.276C899.553 432.921 901.34 433.243 903.918 433.243L910.554 433.067C916.97 432.833 921.145 431.939 923.078 430.387C924.162 429.508 924.88 428.351 925.231 426.915C925.583 425.479 925.759 424.044 925.759 422.608C925.759 421.144 925.729 420.089 925.671 419.444ZM1070.65 377.257C1069.53 376.964 1068.57 376.817 1067.75 376.817C1066.96 376.817 1066.27 377.11 1065.68 377.696C1065.12 378.253 1064.58 378.971 1064.05 379.85C1063.23 381.314 1062.43 383.395 1061.64 386.09L1056.32 403.053L1046.83 431.617C1045.95 434.195 1044.43 436.261 1042.26 437.813C1040.32 439.161 1038.55 439.835 1036.94 439.835C1035.71 439.835 1034.83 439.747 1034.3 439.571L1020.24 403.229L1018.88 398.834C1011.12 418.873 1006.9 429.698 1006.22 431.31C1005.58 432.892 1004.85 434.195 1004.03 435.221C1003.21 436.246 1002.33 437.096 1001.39 437.77C999.514 439.146 997.771 439.835 996.159 439.835C994.724 439.835 993.845 439.747 993.522 439.571L975.637 383.453C975.402 382.809 975.183 382.135 974.978 381.432C974.772 380.699 974.538 380.025 974.274 379.41C973.659 377.945 973 377.125 972.297 376.949C971.594 376.744 970.979 376.583 970.451 376.466C969.924 376.319 969.455 376.144 969.045 375.938C968.137 375.499 967.683 374.898 967.683 374.137C967.683 372.848 967.902 371.896 968.342 371.28C969.045 371.515 970.495 371.632 972.692 371.632H991.062C994.401 371.632 996.071 372.76 996.071 375.016C996.071 375.982 995.837 376.729 995.368 377.257C994.313 376.964 993.098 376.817 991.721 376.817C988.176 376.817 986.403 378.253 986.403 381.124C986.403 382.062 986.55 383.058 986.843 384.112L999.763 428.761C1002.08 422.901 1003.83 418.331 1005.04 415.05L1015.8 384.288C1016.18 383.058 1017.12 382.076 1018.62 381.344C1019.9 380.67 1021.41 380.362 1023.14 380.421L1040.19 428.761C1043.88 417.276 1046.23 409.776 1047.22 406.261L1051.97 389.342C1053.2 384.713 1053.82 381.886 1053.82 380.86C1053.82 379.835 1053.48 379.015 1052.8 378.399C1052.16 377.784 1051.37 377.389 1050.43 377.213C1049.52 377.008 1048.72 376.832 1048.01 376.686C1047.34 376.51 1046.77 376.305 1046.3 376.07C1045.36 375.602 1044.89 374.811 1044.89 373.697C1044.89 372.701 1045.11 371.896 1045.55 371.28C1046.23 371.515 1047.68 371.632 1049.9 371.632H1066.34C1069.68 371.632 1071.35 372.76 1071.35 375.016C1071.35 375.982 1071.12 376.729 1070.65 377.257ZM1091.74 439C1088.4 439 1086.73 437.901 1086.73 435.704C1086.73 434.708 1086.95 433.932 1087.39 433.375C1088.5 433.668 1089.6 433.814 1090.69 433.814C1091.8 433.814 1092.71 433.741 1093.41 433.595C1094.14 433.448 1094.79 433.141 1095.34 432.672C1096.49 431.617 1097.09 429.713 1097.15 426.959V415.885L1075.96 380.729C1074.79 378.824 1073.81 377.682 1073.02 377.301C1072.23 376.891 1071.6 376.612 1071.13 376.466C1070.69 376.319 1070.29 376.129 1069.94 375.895C1069.12 375.426 1068.71 374.781 1068.71 373.961C1068.71 372.76 1068.95 371.866 1069.42 371.28C1070.09 371.515 1071.54 371.632 1073.77 371.632H1089.63C1092.5 371.632 1094.32 372.101 1095.08 373.038C1095.46 373.478 1095.65 374.151 1095.65 375.06C1095.65 375.938 1095.37 376.686 1094.82 377.301C1093.82 377.008 1092.71 376.861 1091.48 376.861C1089.04 376.861 1087.83 377.799 1087.83 379.674C1087.83 381.021 1088.43 382.662 1089.63 384.596L1103.74 408.941C1107.34 402.936 1109.96 398.438 1111.6 395.45L1115.73 387.716C1117.64 384.024 1118.66 381.871 1118.81 381.256C1118.96 380.611 1119.03 380.099 1119.03 379.718C1119.03 379.337 1118.91 379 1118.68 378.707C1118.47 378.414 1118.2 378.18 1117.84 378.004C1117.49 377.799 1117.1 377.652 1116.66 377.564C1116.22 377.447 1115.69 377.315 1115.08 377.169C1114.46 377.022 1113.8 376.876 1113.1 376.729C1112.39 376.583 1111.78 376.393 1111.25 376.158C1110.08 375.66 1109.49 374.84 1109.49 373.697C1109.49 372.525 1109.71 371.72 1110.15 371.28C1110.83 371.515 1112.28 371.632 1114.5 371.632H1129.71C1132.38 371.632 1134.07 372.115 1134.81 373.082C1135.13 373.521 1135.29 374.049 1135.29 374.664C1135.29 375.836 1135.03 376.715 1134.5 377.301C1133.5 377.008 1132.65 376.861 1131.95 376.861C1131.25 376.861 1130.62 377.081 1130.06 377.521C1129.5 377.96 1128.96 378.561 1128.43 379.322C1127.94 380.084 1127.42 380.963 1126.9 381.959C1125.26 385.182 1123.97 387.628 1123.03 389.298C1113.71 405.118 1108.91 413.307 1108.62 413.863L1107.52 415.709V428.629C1107.52 431.148 1108.91 432.643 1111.69 433.111C1115.03 433.639 1117.01 434.093 1117.62 434.474C1118.68 435.06 1119.21 435.895 1119.21 436.979C1119.21 437.975 1118.97 438.766 1118.5 439.352C1117.83 439.117 1116.38 439 1114.15 439H1091.74ZM1143.99 439C1140.07 439 1138.1 437.872 1138.1 435.616C1138.1 434.591 1138.34 433.873 1138.81 433.463C1139.66 433.697 1140.53 433.814 1141.44 433.814C1142.38 433.814 1143.19 433.697 1143.86 433.463C1144.56 433.229 1145.18 432.892 1145.71 432.452C1146.76 431.544 1147.29 430.27 1147.29 428.629V380.772C1147.23 379.601 1146.98 378.722 1146.54 378.136C1146.1 377.55 1145.44 377.14 1144.56 376.905C1143.68 376.642 1142.95 376.451 1142.37 376.334C1141.81 376.217 1141.3 376.07 1140.83 375.895C1139.8 375.455 1139.29 374.913 1139.29 374.269C1139.29 372.921 1139.51 371.969 1139.95 371.412C1140.56 371.559 1141.5 371.632 1142.76 371.632H1151.33C1153.91 371.632 1156.22 372.936 1158.27 375.543L1195.23 422.389V381.388C1195.2 380.216 1194.95 379.234 1194.48 378.443C1194.04 377.652 1193.28 377.125 1192.2 376.861C1191.14 376.598 1190.21 376.407 1189.39 376.29C1188.57 376.144 1187.83 375.953 1187.19 375.719C1185.81 375.25 1185.12 374.488 1185.12 373.434C1185.12 372.555 1185.36 371.881 1185.83 371.412C1186.44 371.559 1187.38 371.632 1188.64 371.632H1206.35C1210.28 371.632 1212.24 372.467 1212.24 374.137C1212.24 375.543 1212.02 376.495 1211.58 376.993C1210.85 376.788 1210 376.686 1209.03 376.686C1208.09 376.686 1207.27 376.715 1206.57 376.773C1205.87 376.803 1205.24 376.979 1204.68 377.301C1203.45 377.975 1202.8 379.352 1202.75 381.432V437.77C1202.75 438.619 1202.51 439.132 1202.04 439.308C1201.57 439.513 1200.72 439.615 1199.49 439.615C1197.41 439.615 1195.19 438.077 1192.81 435.001L1154.8 387.188V429.244C1154.95 431.764 1156.13 433.316 1158.36 433.902C1159.21 434.078 1160.05 434.225 1160.87 434.342C1161.72 434.459 1162.46 434.605 1163.11 434.781C1164.6 435.162 1165.35 435.836 1165.35 436.803C1165.35 437.857 1165.13 438.663 1164.69 439.22C1164.07 439.073 1163.14 439 1161.88 439H1143.99ZM1263.48 390.66C1263.6 389.84 1263.65 388.639 1263.65 387.057C1263.65 385.475 1263.35 384.039 1262.73 382.75C1262.12 381.432 1261.28 380.406 1260.23 379.674C1258.38 378.414 1255.6 377.784 1251.88 377.784C1248.19 377.784 1244.92 378.458 1242.08 379.806C1239.26 381.124 1236.91 382.984 1235 385.387C1231.16 390.221 1229.25 396.798 1229.25 405.118C1229.25 412.999 1231.19 419.283 1235.09 423.971C1239.13 428.863 1244.6 431.31 1251.48 431.31C1258.25 431.31 1263.52 429.83 1267.3 426.871C1268.44 425.992 1269.48 425.04 1270.42 424.015C1271.3 424.278 1272.02 425.055 1272.58 426.344C1272.75 426.783 1272.84 427.369 1272.84 428.102C1272.84 428.805 1272.31 429.859 1271.26 431.266C1270.23 432.643 1268.72 433.976 1266.73 435.265C1261.98 438.37 1256.3 439.923 1249.68 439.923C1240.19 439.923 1232.63 437.037 1227 431.266C1221.44 425.611 1218.65 418.038 1218.65 408.546C1218.65 402.745 1219.58 397.516 1221.42 392.857C1223.27 388.199 1225.79 384.244 1228.98 380.992C1232.17 377.711 1235.9 375.191 1240.14 373.434C1244.42 371.676 1248.57 370.797 1252.58 370.797C1256.62 370.797 1259.86 371.134 1262.29 371.808C1264.72 372.481 1266.75 373.404 1268.36 374.576C1271.58 376.979 1273.19 380.172 1273.19 384.156C1273.19 387.203 1272.06 389.356 1269.81 390.616C1269.04 391.056 1268.22 391.275 1267.35 391.275C1265.53 391.275 1264.24 391.07 1263.48 390.66Z" fill="url(#paint8_linear_0_1)"/>
</g>
<defs>
<filter id="filter0_d_0_1" x="655.186" y="368.797" width="622.005" height="81.126" filterUnits="userSpaceOnUse" color-interpolation-filters="sRGB">
<feFlood flood-opacity="0" result="BackgroundImageFix"/>
<feColorMatrix in="SourceAlpha" type="matrix" values="0 0 0 0 0 0 0 0 0 0 0 0 0 0 0 0 0 0 127 0" result="hardAlpha"/>
<feOffset dx="-2" dy="4"/>
<feGaussianBlur stdDeviation="3"/>
<feComposite in2="hardAlpha" operator="out"/>
<feColorMatrix type="matrix" values="0 0 0 0 0 0 0 0 0 0 0 0 0 0 0 0 0 0 0.4 0"/>
<feBlend mode="normal" in2="BackgroundImageFix" result="effect1_dropShadow_0_1"/>
<feBlend mode="normal" in="SourceGraphic" in2="effect1_dropShadow_0_1" result="shape"/>
</filter>
<linearGradient id="paint0_linear_0_1" x1="756.5" y1="92" x2="756.5" y2="182" gradientUnits="userSpaceOnUse">
<stop offset="0.17" stop-color="#A8F645"/>
<stop offset="0.84" stop-color="#629028"/>
</linearGradient>
<linearGradient id="paint1_linear_0_1" x1="756.5" y1="193" x2="756.5" y2="293" gradientUnits="userSpaceOnUse">
<stop offset="0.17" stop-color="#A8F645"/>
<stop offset="0.84" stop-color="#629028"/>
</linearGradient>
<linearGradient id="paint2_linear_0_1" x1="539.5" y1="293" x2="539.5" y2="383" gradientUnits="userSpaceOnUse">
<stop offset="0.266" stop-color="#FFA1A1"/>
<stop offset="0.921" stop-color="#995B5B"/>
</linearGradient>
<linearGradient id="paint3_linear_0_1" x1="539.5" y1="394" x2="539.5" y2="494" gradientUnits="userSpaceOnUse">
<stop offset="0.266" stop-color="#FFA1A1"/>
<stop offset="0.921" stop-color="#995B5B"/>
</linearGradient>
<linearGradient id="paint4_linear_0_1" x1="756.5" y1="494" x2="756.5" y2="584" gradientUnits="userSpaceOnUse">
<stop offset="0.286" stop-color="#A6B4FF"/>
<stop offset="0.966" stop-color="#515C98"/>
</linearGradient>
<linearGradient id="paint5_linear_0_1" x1="756.5" y1="595" x2="756.5" y2="695" gradientUnits="userSpaceOnUse">
<stop offset="0.286" stop-color="#A6B4FF"/>
<stop offset="0.966" stop-color="#515C98"/>
</linearGradient>
<linearGradient id="paint6_linear_0_1" x1="642" y1="404" x2="1233.11" y2="404" gradientUnits="userSpaceOnUse">
<stop offset="0.661" stop-color="#FFECA7" stop-opacity="0.8"/>
<stop offset="1" stop-color="white" stop-opacity="0"/>
</linearGradient>
<linearGradient id="paint7_linear_0_1" x1="642" y1="404" x2="1307" y2="404" gradientUnits="userSpaceOnUse">
<stop/>
<stop offset="0.931" stop-color="#666666" stop-opacity="0"/>
</linearGradient>
<linearGradient id="paint8_linear_0_1" x1="658" y1="392.5" x2="1296" y2="392.5" gradientUnits="userSpaceOnUse">
<stop offset="0.196" stop-color="#8488EA"/>
<stop offset="0.671" stop-color="#F153FE"/>
</linearGradient>
</defs>
</svg>
